<svg width="384" height="384" viewBox="0 0 384 384" fill="none" xmlns="http://www.w3.org/2000/svg">
<g filter="url(#filter0_d_2_100)">
<path d="M347.857 176.421C350.812 205.995 345.29 235.799 331.938 262.352L303.953 248.279C314.634 227.037 319.051 203.194 316.688 179.535L347.857 176.421Z" fill="#E105E6"/>
<path d="M301.459 79.9551C322.719 100.724 337.63 127.114 344.452 156.041L313.964 163.231C308.506 140.089 296.577 118.977 279.569 102.362L301.459 79.9551Z" fill="#E105E6"/>
<path d="M203.791 35.8104C233.428 38.0459 261.817 48.6678 285.642 66.4354L266.916 91.5462C247.855 77.3321 225.144 68.8346 201.435 67.0462L203.791 35.8104Z" fill="#E105E6"/>
<path d="M100.809 64.6591C124.972 47.3526 153.56 37.2783 183.234 35.6129L184.989 66.8882C161.25 68.2206 138.379 76.28 119.049 90.1252L100.809 64.6591Z" fill="#E105E5"/>
<path d="M40.3011 153.067C47.6872 124.278 63.1119 98.1855 84.7738 77.8361L106.221 100.667C88.8916 116.946 76.5518 137.82 70.643 160.851L40.3011 153.067Z" fill="#E105E5"/>
<path d="M50.8205 259.784C37.9557 232.991 32.9797 203.092 36.4738 173.577L67.5811 177.259C64.7859 200.871 68.7666 224.791 79.0584 246.225L50.8205 259.784Z" fill="#E105E5"/>
<path d="M127.416 334.672C100.34 322.414 77.3113 302.706 61.0185 277.849L87.2169 260.677C100.251 280.563 118.674 296.329 140.335 306.135L127.416 334.672Z" fill="#E105E5"/>
<path d="M234.273 342.802C205.655 350.822 175.345 350.534 146.885 341.971L155.91 311.974C178.678 318.825 202.926 319.056 225.821 312.64L234.273 342.802Z" fill="#E105E5"/>
<path d="M321.368 280.291C304.612 304.838 281.217 324.111 253.916 335.859L241.535 307.085C263.376 297.687 282.092 282.269 295.497 262.631L321.368 280.291Z" fill="#E105E5"/>
</g>
<defs>
<filter id="filter0_d_2_100" x="0.610455" y="0.835613" width="382.8" height="382.554" filterUnits="userSpaceOnUse" color-interpolation-filters="sRGB">
<feFlood flood-opacity="0" result="BackgroundImageFix"/>
<feColorMatrix in="SourceAlpha" type="matrix" values="0 0 0 0 0 0 0 0 0 0 0 0 0 0 0 0 0 0 127 0" result="hardAlpha"/>
<feOffset/>
<feGaussianBlur stdDeviation="17.3886"/>
<feComposite in2="hardAlpha" operator="out"/>
<feColorMatrix type="matrix" values="0 0 0 0 0.478431 0 0 0 0 0.0431373 0 0 0 0 0.752941 0 0 0 0.6 0"/>
<feBlend mode="normal" in2="BackgroundImageFix" result="effect1_dropShadow_2_100"/>
<feBlend mode="normal" in="SourceGraphic" in2="effect1_dropShadow_2_100" result="shape"/>
</filter>
</defs>
</svg>
